<svg width="15" height="13" viewBox="0 0 15 13" fill="none" xmlns="http://www.w3.org/2000/svg">
<path d="M0.877444 6.09818H12.8881L8.28902 1.71894C8.0482 1.48961 8.03887 1.10863 8.26825 0.86788C8.49733 0.627431 8.87842 0.617801 9.11954 0.847116L14.3719 5.8487C14.5991 6.0762 14.7247 6.37835 14.7247 6.70005C14.7247 7.02145 14.5991 7.3239 14.3613 7.56133L9.11925 12.5527C9.00275 12.6637 8.85344 12.7188 8.70413 12.7188C8.54519 12.7188 8.38625 12.6562 8.26795 12.532C8.03857 12.2912 8.0479 11.9105 8.28872 11.6812L12.9071 7.30193H0.877444C0.54511 7.30193 0.275391 7.03229 0.275391 6.70005C0.275391 6.36782 0.54511 6.09818 0.877444 6.09818Z" fill="#1A1A1A"/>
</svg>
