<svg width="20" height="18" viewBox="0 0 20 18" fill="none" xmlns="http://www.w3.org/2000/svg">
<path d="M13.6667 -2.98023e-07C12.3333 -2.98023e-07 11.1111 0.364865 10 1.09459C8.88889 0.364865 7.66667 -2.98023e-07 6.33333 -2.98023e-07C5.17778 -2.98023e-07 4.12222 0.263513 3.16667 0.79054C2.21111 1.31757 1.44444 2.01689 0.866667 2.88851C0.288889 3.76013 0 4.72297 0 5.77703C0 7.92568 1.68889 10.5811 5.06667 13.7432C6.08889 14.7162 7.22222 15.6892 8.46667 16.6622C9.08889 17.1486 9.62222 17.5338 10.0667 17.8176C10.2 17.9392 10.3556 18 10.5333 18C10.7111 18 10.8667 17.9392 11 17.8176C11.7556 17.2095 12.5778 16.4797 13.4667 15.6284C15.2444 14.0068 16.6667 12.4662 17.7333 11.0068C19.2444 8.97973 20 7.23649 20 5.77703C20 4.72297 19.7111 3.76013 19.1333 2.88851C18.5556 2.01689 17.7889 1.31757 16.8333 0.79054C15.8778 0.263513 14.8222 -2.98023e-07 13.6667 -2.98023e-07ZM10.4667 16.3581C8.37778 14.8581 6.53333 13.2568 4.93333 11.5541C2.66667 9.16216 1.53333 7.23649 1.53333 5.77703C1.53333 5.00676 1.74444 4.28716 2.16667 3.61824C2.58889 2.94932 3.16667 2.41216 3.9 2.00676C4.63333 1.60135 5.44444 1.39865 6.33333 1.39865C7.53333 1.39865 8.57778 1.76351 9.46667 2.49324H9.53333C9.66667 2.61486 9.83333 2.67568 10.0333 2.67568C10.2333 2.67568 10.4 2.61486 10.5333 2.49324C11.4222 1.76351 12.4667 1.39865 13.6667 1.39865C14.5556 1.39865 15.3667 1.60135 16.1 2.00676C16.8333 2.41216 17.4111 2.94932 17.8333 3.61824C18.2556 4.28716 18.4667 5.00676 18.4667 5.77703C18.4667 7.23649 17.4667 9.16216 15.4667 11.5541C14 13.2162 12.3333 14.8176 10.4667 16.3581Z" fill="#FF0000"/>
</svg>
