<svg width="35" height="33" viewBox="0 0 35 33" fill="none" xmlns="http://www.w3.org/2000/svg">
<path d="M18 31.2229H6.68919C6.04054 31.2229 5.51351 30.9998 5.10811 30.5535C4.7027 30.1072 4.5 29.6001 4.5 29.032V13.8175L15.9324 3.715C16.5 3.22813 17.1892 2.9847 18 2.9847C18.8108 2.9847 19.5 3.22813 20.0676 3.715L34.5405 16.4952C34.7027 16.6575 34.9054 16.7184 35.1486 16.6778C35.3919 16.6372 35.5946 16.5358 35.7568 16.3735C35.9189 16.2112 35.9797 16.0084 35.9392 15.7649C35.8986 15.5215 35.7973 15.3186 35.6351 15.1564L33.2027 13.0872V4.4453C33.2027 3.22813 32.7568 2.17326 31.8649 1.28067C30.973 0.38808 29.9189 -0.037928 28.7027 0.00264417C27.4865 0.0432164 26.4527 0.48951 25.6014 1.34153C24.75 2.19354 24.2838 3.22813 24.2027 4.4453V5.1756L21.1622 2.49783C20.2703 1.68639 19.2162 1.28067 18 1.28067C16.7838 1.28067 15.7297 1.68639 14.8378 2.49783L0.364865 15.1564C0.121622 15.3186 0 15.5215 0 15.7649C0 16.0084 0.0810811 16.2112 0.243243 16.3735C0.405405 16.5358 0.608108 16.6372 0.851351 16.6778C1.09459 16.7184 1.2973 16.6575 1.45946 16.4952L2.7973 15.3998V29.032C2.7973 30.0869 3.18243 30.9998 3.9527 31.7707C4.72297 32.5415 5.63514 32.927 6.68919 32.927H18C18.2432 32.927 18.4459 32.8458 18.6081 32.6835C18.7703 32.5212 18.8514 32.3184 18.8514 32.075C18.8514 31.8315 18.7703 31.6287 18.6081 31.4664C18.4459 31.3041 18.2432 31.2229 18 31.2229ZM25.9054 4.4453C25.9865 3.63385 26.2905 2.96441 26.8176 2.43698C27.3446 1.90954 27.9932 1.6661 28.7635 1.70668C29.5338 1.74725 30.1824 2.03125 30.7095 2.55869C31.2365 3.08613 31.5 3.715 31.5 4.4453V11.5049L25.9054 6.6362V4.4453ZM18 8.58366C16.8649 8.58366 15.8919 8.98938 15.0811 9.80083C14.2703 10.6123 13.8649 11.586 13.8649 12.722C13.8649 13.858 14.2703 14.8318 15.0811 15.6432C15.8919 16.4547 16.8649 16.8604 18 16.8604C19.1351 16.8604 20.1081 16.4547 20.9189 15.6432C21.7297 14.8318 22.1351 13.858 22.1351 12.722C22.1351 11.586 21.7297 10.6123 20.9189 9.80083C20.1081 8.98938 19.1351 8.58366 18 8.58366ZM20.4324 12.722C20.4324 13.4523 20.1892 14.0406 19.7027 14.4869C19.2162 14.9332 18.6486 15.1564 18 15.1564C17.3514 15.1564 16.7838 14.9332 16.2973 14.4869C15.8108 14.0406 15.5676 13.4726 15.5676 12.7829C15.5676 12.0932 15.8108 11.5049 16.2973 11.018C16.7838 10.5311 17.3514 10.2877 18 10.2877C18.6486 10.2877 19.2162 10.5311 19.7027 11.018C20.1892 11.5049 20.4324 12.0729 20.4324 12.722ZM35.7568 31.5881L32.8378 28.5452C33.5676 27.4903 33.9324 26.3137 33.9324 25.0154C33.9324 23.3925 33.3446 22.0131 32.1689 20.877C30.9932 19.741 29.5946 19.173 27.973 19.173C26.3514 19.173 24.9527 19.741 23.777 20.877C22.6014 22.0131 22.0135 23.4128 22.0135 25.0763C22.0135 26.7397 22.6014 28.1395 23.777 29.2755C24.9527 30.4115 26.3514 30.9795 27.973 30.9795C29.3514 30.9795 30.5676 30.5738 31.6216 29.7623L34.4189 32.6835C34.5811 32.8458 34.7838 32.9473 35.027 32.9878C35.2703 33.0284 35.4932 32.9675 35.6959 32.8053C35.8986 32.643 36 32.4401 36 32.1967C36 31.9532 35.9189 31.7504 35.7568 31.5881ZM27.973 29.2755C26.8378 29.2755 25.8446 28.8698 24.9932 28.0583C24.1419 27.2469 23.7162 26.2528 23.7162 25.0763C23.7162 23.8997 24.1419 22.9056 24.9932 22.0942C25.8446 21.2828 26.8581 20.877 28.0338 20.877C29.2095 20.877 30.2027 21.2828 31.0135 22.0942C31.8243 22.9056 32.2297 23.8997 32.2297 25.0763C32.2297 26.2528 31.8243 27.2469 31.0135 28.0583C30.2027 28.8698 29.1892 29.2755 27.973 29.2755Z" fill="black"/>
</svg>
